<svg id="Laag_1" data-name="Laag 1" xmlns="http://www.w3.org/2000/svg" xmlns:xlink="http://www.w3.org/1999/xlink" viewBox="0 0 100 100"><defs><style>.cls-1{fill:none;}.cls-2{clip-path:url(#clip-path);}.cls-3{fill:#07df8d;}</style><clipPath id="clip-path"><rect class="cls-1" x="-42.87" y="-8.04" width="185.74" height="116.09"/></clipPath></defs><g class="cls-2"><g class="cls-2"><path class="cls-3" d="M47.16,54.93c0,.19-.1.5-.25.56a1,1,0,0,1-.72-.09c-.33-.2-.41.08-.56.21a.25.25,0,0,0,0,.25c0,.06.22.1.25.07a.49.49,0,0,1,.52-.19.65.65,0,0,1,.17.08.67.67,0,0,1-.11.14c-.25.21-.5.42-.86.19-.07,0-.29,0-.13.18s.16.59,0,.58c-.56,0-.55.39-.71.7,0,.07-.14.1-.22.14s-.3.09-.43.16,0,.24,0,.35c-.21.06-.37.33-.63.17s-.31-.14-.36.08c0,.06.11.21.19.24s.26.07.07.2-.24,0-.25.09c-.13.71-.29,0-.43,0s0-.2,0-.53c-.1-.14-.14-.1-.18-.07l.29.3c0-.08.11-.18.09-.23s-.14-.15-.2,0a.52.52,0,0,0-.14.75c.24.3.07.29-.16.28a.3.3,0,0,1-.25-.07A1.69,1.69,0,0,0,42,59l-.45.28a2.48,2.48,0,0,0,.39.27c.05,0,.15-.07.24-.06,0,.21.18.4.14.47a4,4,0,0,1-.56.6s-.12,0-.17,0c-.25-.14-.24-.14-.26.14v.1l-.31-.19c0,.11,0,.23,0,.34s.06.14.09.21l-.48.21a2.61,2.61,0,0,1-.06-.27,1,1,0,0,1,0-.39c0-.06,0,0,0,0l.09.09a.83.83,0,0,0,.08-.12s0,0-.12,0c-.18.25-.32.41-.44.58s0,.25-.07.26c-.72.12-.5.56-.36,1,0,.07-.05.18-.08.26a1.77,1.77,0,0,0-.15-.31c0-.05-.11-.05-.16-.08a.61.61,0,0,0,0-.19,1.27,1.27,0,0,0-.06-.18,1.18,1.18,0,0,0-.13.18c0,.05,0,.13.05.28-.08,0-.13-.09-.15-.08a6.45,6.45,0,0,0-.62.21s0,.09,0,.14.06,0,.08,0a2.35,2.35,0,0,0,.73-.31c0-.09.08-.09.15-.09.07.5-.41.63-.63.93s-.35.45-.42-.06c0,0-.12,0-.13,0s-.34.14-.12.36c.06,0,0,.21,0,.33-.73-.08-.51.45-.55.82s-.5.41-.8.32c0,0,0-.07,0-.1a3.15,3.15,0,0,0,.26-.29c0-.06,0,0-.06,0l.09.09a.94.94,0,0,0,.09-.12s0,0-.12,0a3.15,3.15,0,0,1-.26.29l-.61.2a.5.5,0,0,0-.27-.16c0-.07.07-.1.07-.13a2,2,0,0,0-.05-.26s-.13,0-.13,0a.7.7,0,0,0,.11.36.5.5,0,0,1,.27.16c0,.26.1.64-.21.7s-.71.48-1.16.25a.56.56,0,0,0-.21-.06c0,.06,0,.16,0,.18.33.32.21.63,0,1a1.71,1.71,0,0,0-1.5.19.87.87,0,0,0-.08.14c.06,0,.12.06.17.07h.61c0,.31-.66.16-.42.63,0,0-.13.18-.16.17-.45-.22-.35.45-.73.43-.18,0,.05.17.07.26a.84.84,0,0,1,0,.27c-.11,0-.28,0-.33,0a2.24,2.24,0,0,1-.42-.63c-.08-.19.06-.29.27-.29,0,0,.07-.2.1-.31l-.21.06c-.21.08-.47.12-.37.44.22.69-.61.87-.69,1.42l-.27,0-.22-.08c0,.07,0,.13,0,.19a.39.39,0,0,0,.1.16c.16.15.1.27,0,.42a1.17,1.17,0,0,0-.15.34,4.27,4.27,0,0,0-.29-.41c-.05-.06-.14-.07-.21-.1a1.22,1.22,0,0,0,0,.27.92.92,0,0,0,.13.21.68.68,0,0,1-.27,0c-.15,0-.33-.19-.41-.15s0,.25,0,.41c.13.34-.17.62-.21.95a1.21,1.21,0,0,1-.41-.39c-.12-.2-.15-.21-.18-.2l-.31.12a2.66,2.66,0,0,0,.38.28c.22.1.21-.18.34-.24l-.21-.16s-.07,0,0,.2a3.37,3.37,0,0,1,.09.9c0,.11,0,.45-.19.18s-.46.43-.42-.12a.69.69,0,0,0-.11-.36.88.88,0,0,0-.2-.18,1.94,1.94,0,0,0,0,.34.79.79,0,0,0,.06.22c-.06,0-.13,0-.18,0a5.62,5.62,0,0,0-.53-.19c-.24,0-.28-.17-.19-.33a9.36,9.36,0,0,1,.93-1.52A11.35,11.35,0,0,0,29.09,69c.09-.17.34-.24.48-.39s.22-.39.36-.55.6-.44.68-.72.44-.33.59-.55.42-.57.64-.84.55-.4.46-.82c0,0,.07-.14.11-.14.64-.07.66-.75,1-1.09.15-.13.17-.39.46-.33.05,0,.17,0,.17-.07,0-.59.74-.78.85-1.34a.55.55,0,0,1,.3-.18,1.33,1.33,0,0,0,.46-.16l-.28-.45c-.09.17-.19.33-.27.49s.11.09.09.12a.55.55,0,0,0-.3.18c-.34-.09-.46.19-.67.35a.27.27,0,0,1-.26,0,.25.25,0,0,1-.07-.25c.06-.18.14-.44.27-.48.63-.17.76-.89,1.31-1.15.18-.09.25-.39.43-.51.64-.45,1-1.21,1.66-1.63a2.78,2.78,0,0,0,1.28-1.44c.13-.39.5-.44.67-.71a22,22,0,0,1,3-3.29A3.58,3.58,0,0,1,43,52.8c-.13-.1-.23-.2,0-.36s.07-.25.15-.33c.29-.25.6-.48.9-.72-.17-.47.29-.7.47-1a6.16,6.16,0,0,1,1.17-1.23c.15-.15.26-.28.07-.49s0-.14.13-.19c.5-.32.45-.3.1-.79a9.74,9.74,0,0,0-2.32-2.12A1.61,1.61,0,0,1,43,45a.94.94,0,0,0-.87-.54.5.5,0,0,0-.61-.41c0-.12,0-.28-.07-.36-.51-.54-1-1.07-1.58-1.58-.08-.07-.24,0-.41-.07h0a.67.67,0,0,0-.06-.15s-.08,0-.12,0a.38.38,0,0,0,.13.12c0,.07,0,.18-.11.19a.35.35,0,0,1-.25-.1,25.2,25.2,0,0,0-2.52-2.33c-.3-.21-.39-.59-.76-.78a4.48,4.48,0,0,1-.86-.83l-4.72-4.51c-.12-.12-.23-.25-.35-.35s-.37-.44-.2-.68.36-.06,1.54,1c1,1,1,1,.93,1-.21-.28-.39-.72-.65-.78-.52-.13-.37-.55-.55-.82a.89.89,0,0,0-.3-.23l-.42-.2a.51.51,0,0,0,.21.52c.14.1.35.24.34.35,0,.57.55.63.8,1a1.77,1.77,0,0,0,.44.37s.12,0-.8-1.13c-1.29-1.46-1.65-1.79-2-2.15a.88.88,0,0,1-.2-.73c0-.35.15-.1.27-.05s.22,0,.32-.09,0-.17,0-.18c-.65-.24-.59-1-1-1.41-.13-.15,0-.53-.36-.54,0,0-.09-.13-.07-.16.21-.36.15-.56-.3-.62a.49.49,0,0,1-.29-.36c0-.25-.19-.23-.35-.23-.45,0-.08-.27-.09-.29a2.91,2.91,0,0,0-.79-.7c-.78-.36-.73-.35-.82-1.11a5.6,5.6,0,0,1,.51-2.12c.06-.22-.05-.46.23-.65s.31-.29.72,0c.19.12.3,0,.42-.09a.69.69,0,0,1,1-.08l.63.42c.23-.32.33,0,.5.09s0,.4.1.5.36.08.54.16.46.18.46.27c0,.6.58.55.86.83a.48.48,0,0,0,.23.17c.56.12.22.88.64,1a1,1,0,0,1,.84.91c.08.36.48.65.73,1s.3.41.44.63.18,0,.27,0,.27-.07.35.16a1.54,1.54,0,0,0,.82,1,1.75,1.75,0,0,1,1,1.27c0,.21.48.33.55.55s.41.38.63.53.34.25.45.77c0,.14.08.36.34.26a.53.53,0,0,1,.22,0v.3a.59.59,0,0,0-.16.06s0,.08,0,.13a.58.58,0,0,0,.12-.14,2.33,2.33,0,0,1,.4.33c.05.06.1.2.12.2s.23-.34.27,0-.2.17-.35.2a1,1,0,0,0-.23.11.51.51,0,0,0,.16.09,1.06,1.06,0,0,1,1.09.74c0,.1.26.14.39.21l.56.36c.21.13.19.27,0,.42l.14.14c.28.21.71.37.81.65.15.45.45.44.77.57.09,0,.67.18.31.61.27.17.52.45.82.51.46.08-.37.45.13.42a.62.62,0,0,1,.59.27,1.68,1.68,0,0,1,.34.55c.09.42.64.38.71.84v0a.59.59,0,0,0-.16.06s0,.08,0,.13a.43.43,0,0,0,.12-.14,5,5,0,0,1,.45.3c.23.16.06.25,0,.36l.06.06c.58-.06.62.54,1,.77s.6.44.89.68.06.33-.07.49,0,.17,0,.26l.21-.1c.35-.14.44.11.59.42-.08,0-.16-.05-.23-.05s-.13.07-.2.11l.27.26a1.1,1.1,0,0,0,.16-.32c.43.1.58.7,1.11.8.1,0,.16.17.29,0a8.28,8.28,0,0,1,.78-.89,2.49,2.49,0,0,0,.72-.79,2.81,2.81,0,0,1,.7-.91c.27-.25.38-.62.75-.81s.33-.45.51-.67.39-.34.35-.67c0-.11.16-.29.29-.37a3.69,3.69,0,0,0,1.35-1.34,5.49,5.49,0,0,1,.63-.65c.22-.26.62-.42.54-.88a.29.29,0,0,1,.2-.15c.35,0,.45-.2.62-.47a5.35,5.35,0,0,1,1-1.09A8.79,8.79,0,0,0,60.29,33l.34-.47c.12-.19.24-.15.35,0,.07-.12.14-.25.22-.37a4.43,4.43,0,0,1,.5-.7c.3-.29.53-.68,1-.79,0-.54.42-.77.71-1.11s.52-.65.78-1,.36-.53.58-.76.28-.55.62-.64a.24.24,0,0,0,.14-.14c.2-.72.88-1.08,1.27-1.67a3.57,3.57,0,0,1,.65-.83A8.29,8.29,0,0,0,69,22.92a6.7,6.7,0,0,1,.89-.79c.24-.23.78-.17,1.19-.23a2.66,2.66,0,0,1,1.09.12c.26.09.54.14.81.22.09,0,1.18,1,1.26,1.05s0,.19,0,.29c-.07.33-.52.66,0,1a.32.32,0,0,1-.05.26c-.52.36-.68,1.09-1.38,1.26a.31.31,0,0,0-.16.19,4,4,0,0,1-1.29,1.57,5.89,5.89,0,0,1-1.46,1.31c-.2.09-.28.42-.44.61s-.44.61-.72.68-.33.49-.53.7a7.38,7.38,0,0,1-.72.62c0-.06.11-.11.11-.14a1.2,1.2,0,0,0-.13-.31c-.09.06-.22.1-.25.18s.08.17.27.27.09.3,0,.31a.92.92,0,0,0-.7.6c-.1.29-.66.27-.44.72,0,0,0,.11-.1.14-.62.42-.81,1.21-1.53,1.59-.43.23-.66.83-1,1.27a2.62,2.62,0,0,1-.38.48c-.43-.25-.07.4-.35.31-.1.36-.62-.06-.69.39a4.77,4.77,0,0,1-.21.71c-.06.24-.41-.42-.4.14,0,.14-.27.27-.37.44s-.13.41-.23.6-.17.07-.24.11c-.38.22-.85.33-.81.94,0,.13-.24.37-.4.4a1,1,0,0,0-.73.9c-.09.47-.43-.3-.42.12s-.23.25-.53.3c0-.05.12-.1.11-.13a1.66,1.66,0,0,0-.12-.31c-.09,0-.23.09-.26.18s.08.17.27.26a.35.35,0,0,1,.26.2c.1.17.13.33-.12.36s-.47,0-.7,0a2.08,2.08,0,0,0,0,.39c-.35-.1-.54.15-.75.36s0,.22.12.25.07.15.05.17-.29.29-.42.44a.21.21,0,0,0,0,.18,2.69,2.69,0,0,0,.27.2,2.66,2.66,0,0,1-.28.38.45.45,0,0,1-.29,0c-.34-.06-.49.05-.46.43,0,.09-.3.18-.37.32-.21.42-.84.47-.89,1a1.2,1.2,0,0,1-.28,0,.48.48,0,0,0-.18,0,1.41,1.41,0,0,0,.1,1.17c.29.2.38.56.67.75s.18.56.56.57c.07,0,.21.14.2.2-.07.55.36.58.7.7.11,0,.3.08.31.14.08.67.69.87,1.06,1.28A4.73,4.73,0,0,1,58.24,53a.7.7,0,0,0,.34.36.85.85,0,0,1,.53.67c0,.17.17.46.27.47.54,0,.48.76,1,.79.29,0,.29.26.43.41.37.38.69.8,1.1,1.15s.88,1.06,1.38,1.53c.74.68,1.54,1.29,2.32,1.92.06.06.24.08.26.05.19-.28.32-.09.43.06.35.43.87.7,1.09,1.26.07.16.38.21.54.37a11.16,11.16,0,0,1,1.49,1.78A12.85,12.85,0,0,0,71,65.57c.17.16.44.31.48.5.12.6.69.9.89,1.45a2.51,2.51,0,0,0,.83,1.27c.12.08.15.27.22.41.16.31.06.63-.25.62-.65,0-1.07.51-1.66.63a.38.38,0,0,0-.16.29c0,.37.21.5.7.51s.55.31.7.6a2.06,2.06,0,0,1,.14.44c0,.13.36.14.16.35,0,0-.22-.13-.33-.11s-.32.12-.34.22a2.61,2.61,0,0,0,0,.79c0,.17-.15.42.12.47.07,0,.2-.29.27-.47a1.67,1.67,0,0,0,0-.39,1.52,1.52,0,0,0,.21,0c.12,0,.32-.08.34,0a2.18,2.18,0,0,0,.9.93c.08.06.09.21.13.31l-.34,0s-.05,0-.07-.07c-.35-.26-.53-.19-.58.22,0,.23,0,.34.29.16s.51-.06.51.37a1.72,1.72,0,0,1,0,.6c-.07.23-.16.54-.52.2-.08-.08-.32,0-.49,0s-.17-.1-.17-.17a.27.27,0,0,1,.12-.22c.13,0,.4,0,.13-.24-.08-.08-.16-.24-.28,0s-.37.3-.57,0a1.92,1.92,0,0,0-.29-.28h-.06S72,75,72,75.08c.19.36.39.71.57,1.07,0,.08,0,.18,0,.27s-.27,0-.34,0c-.39-.36-.89-.56-1.16-1.1a7.94,7.94,0,0,0-1.18-1.43,46.23,46.23,0,0,1-3.57-4.56,10.07,10.07,0,0,0-.92-1.13c-.61-.69-1.24-1.37-1.85-2.06-.27-.31-.65-.62-.74-1s-.43-.24-.47-.5a.47.47,0,0,0-.46-.43.19.19,0,0,1-.14-.11c-.28-.81-1.05-1.26-1.46-2a1.67,1.67,0,0,0-1.29-1,.85.85,0,0,1-.59-.51,5.21,5.21,0,0,0-.91-1.34c-.78-.89-1.6-1.75-2.41-2.62-.28-.3-.58-.56-.85-.86a10.06,10.06,0,0,1-.63-.83c-.23-.34-.66-.43-.87-.83a4.43,4.43,0,0,0-.9-.94c-.31-.31-.61-.63-.93-.92s-.88-.24-1,.14-.48.33-.7.52c0-.06-.09-.15-.07-.17.24-.3,0-.22-.17-.24s-.32,0-.32.24.23.15.11.39a1.15,1.15,0,0,1-.71.69,1.18,1.18,0,0,1-.31.88c-.09.12-.33.15-.54.22,0,0,0-.07,0-.1a1.11,1.11,0,0,0-.08-.46c0-.07-.25,0-.37,0s-.09.15-.07.17a2.56,2.56,0,0,0,.48.43m23,15.31a1.27,1.27,0,0,0,.26-.57c0,.06-.08.13-.06.17L71,71s0,0,.07,0,.08-.11.08-.16a1.56,1.56,0,0,0-.67-1.2s0,0-.13.37a.63.63,0,0,0-.2.29v-.09a.59.59,0,0,0-.16.06s0,.08,0,.12a.3.3,0,0,0,.12-.18M45.59,55v-.09a.67.67,0,0,0-.15.06s0,.08,0,.12.08-.06.24-.37l-.12.1.09.09a.94.94,0,0,0,.09-.12s0,0-.18.21m20.67,8.29a1.64,1.64,0,0,0-.12.3,1.08,1.08,0,0,0,0,.18c.06,0,.17-.08.19-.14s0-.16-.19.23v-.09a.76.76,0,0,0-.16.06s0,.08,0,.13.08-.07.24-.67M31.17,68.37c-.11-.09-.14-.14-.18-.14a1.32,1.32,0,0,0-.26,0s0,.12,0,.12.22,0,.44-.66c-.06.16-.1.22-.12.3a1.08,1.08,0,0,0,0,.18c.07,0,.17-.08.19-.14s0-.16-.11.29m5.36-4.5v-.28l-.37.26c.05,0,.11.14.14.13s.18-.08.35-.87a2,2,0,0,0-.12.29,1.21,1.21,0,0,0,0,.19c.06-.05.17-.08.19-.14s0-.17-.19.42M48.39,52.63l-.09-.12-.09.09a.94.94,0,0,0,.12.09s0,0-.36-.1c.13-.09.24-.14.23-.17a1.66,1.66,0,0,0-.12-.31c-.09.06-.23.1-.26.18s.08.17.57.34m22.38,16.6c0,.3.25.17.82.71a1.72,1.72,0,0,0-.18-.36c0-.07-.16-.1-.24-.15a.66.66,0,0,0,0,.2,1.62,1.62,0,0,0,.14.44c0,.06.13.08.2.12s0-.12-.35-.76c0-.3-.25-.17-.64-.12.13-.09.24-.14.23-.17a1.66,1.66,0,0,0-.12-.31c-.09.06-.23.1-.26.18s.08.17.39.22m.62,4.47.19-.13s-.1-.1-.14-.1a1,1,0,0,0-.25.07,1.87,1.87,0,0,0,.59.28l-.11-.16-.09.1c-.25.23-.32.49-.06.74.09.09.26.09.4.13,0-.1-.09-.23-.17-.28-.36-.2.13-.35-.36-.65M68,63.62c0,.05-.09.17-.06.21.4.57.81,1.13,1.22,1.7.45,0,.36.34.39.62,0,.09.13.25.19.25.29,0,.35.11.46.35a3.57,3.57,0,0,0,.63.83.23.23,0,0,0,.25,0,.26.26,0,0,0,.05-.26,5.06,5.06,0,0,1-.75-.79c-.54-.94-1.29-1.72-1.87-2.63-.08-.14-.32-.18-.51-.27m-.5,1-.16.09c.32.35.13.86.4,1.22,0,0,.13,0,.13,0a3.66,3.66,0,0,0,.25-.7c0-.22-.36-.6-.62-.66M35.3,65.76a.41.41,0,0,0,0-.1c-.1-.15-.16-.38-.3-.44a.48.48,0,0,0-.6.23.35.35,0,0,0,0,.26c0,.06.22.12.25.09s.29-.21.45,0c0,0,.18,0,.27,0m35.07,2.52a2,2,0,0,0-.74-.83.16.16,0,0,0-.07.07c0,.13-.06.33,0,.39a4.34,4.34,0,0,0,.69.5,1,1,0,0,0,.11-.13M32.9,67a.53.53,0,0,0-.08-.17c-.06-.08-.14-.14-.21-.22a1.28,1.28,0,0,0-.11.24.34.34,0,0,0,0,.2c.09.23-.41.58.06.69.3.06,0-.47.27-.58,0,0,.05-.11.07-.16m29.61-8.18c0-.11,0-.17,0-.17-.25-.1-.49-.18-.74-.26a.27.27,0,0,0-.06.16,3.11,3.11,0,0,0,.21.5s.14,0,.19,0,.29-.16.4-.22m4.35,3.34c0,.07-.13.18-.11.21a8.35,8.35,0,0,0,.59.6s.08,0,.09,0,.09-.1.08-.13c-.14-.21-.28-.42-.43-.62,0,0-.12,0-.22-.06M69.68,72l.08-.08a2.64,2.64,0,0,0-.27-.46s-.17,0-.26,0,0,0-.06.07l.51.49M61.81,57.72c-.16-.09-.26-.18-.29-.16a2.37,2.37,0,0,0-.38.33,1.16,1.16,0,0,0,.36,0c.09,0,.17-.11.31-.22M38,62.91l-.37-.29c0,.06-.08.14-.06.17s.22.24.33.36l.1-.24M70.4,72.55c-.11.14-.2.22-.22.31s.09.13.14.2a1.25,1.25,0,0,0,.24-.21s-.07-.14-.16-.3m-3.58-9.19-.24.09.27.34s.09-.11.09-.15a1.39,1.39,0,0,0-.12-.28m.36,1.45L67,64.6l-.26.34c.06,0,.13.07.17,0a1,1,0,0,0,.23-.18M68.56,66l-.21.14.34.26c0-.05.08-.13.06-.16a1.12,1.12,0,0,0-.19-.24M30.61,24.69l.28-.28c-.09,0-.21-.11-.24-.09a.75.75,0,0,0-.16.29,1.18,1.18,0,0,0,.12.08M71.79,68.12l-.35-.27c0,.06-.08.14-.06.16a.81.81,0,0,0,.24.21s.1-.06.17-.1m-31-31.35c.1-.26.16-.34.14-.36a1.55,1.55,0,0,0-.23-.21s-.11.11-.1.16a3.19,3.19,0,0,0,.19.41m-3.6,27.05a1.39,1.39,0,0,0,.12-.28s-.06-.1-.1-.15l-.26.34.24.09m27.48-29.5.17.23a.82.82,0,0,0,.06-.26A1,1,0,0,0,64.8,34c0,.09-.07.17-.11.31M44.62,56.11a2.07,2.07,0,0,0-.24-.17s-.11,0-.17.07l.28.32.13-.22m-10.54-28a.48.48,0,0,0-.08-.12.85.85,0,0,0-.28.16s.05.16.09.24l.27-.28M66,61.15l-.25.08.27.35s.1-.11.09-.15a1.36,1.36,0,0,0-.11-.28m-9.72-17-.1-.24-.33.28c.05,0,.11.1.15.09a1,1,0,0,0,.28-.13M69.2,70.86l-.14-.22-.27.34c.06,0,.13.07.16.06a1.6,1.6,0,0,0,.25-.18M48.13,42.21c-.05.08-.12.13-.11.18a.75.75,0,0,0,.09.25s.09-.1.09-.15a1.14,1.14,0,0,0-.07-.28m6.37,1.95-.18-.08c0,.06-.07.12-.06.17a.52.52,0,0,0,.13.17l.11-.26m-6.33.49a1.59,1.59,0,0,0,0-.29s-.08,0-.12-.07a1.11,1.11,0,0,0-.07.26s.08.05.16.1M29.26,70.26l.12.18a1.25,1.25,0,0,0,.09-.25s-.06-.1-.09-.15l-.12.22m42.48,1.6c-.08,0-.16.07-.16.1a2.44,2.44,0,0,0,.06.26s.13,0,.13-.08a1.58,1.58,0,0,0,0-.28M46.62,42l-.22.12c.05,0,.1.1.15.09a1.25,1.25,0,0,0,.25-.09L46.62,42M29,23.15l.26-.11a.52.52,0,0,0-.17-.13c-.05,0-.11,0-.17.06l.08.18M71,73.42c0-.07-.07-.16-.1-.15a1.22,1.22,0,0,0-.26.06s.05.12.08.12a1,1,0,0,0,.28,0M33.52,66.59l-.12-.18a1.25,1.25,0,0,0-.09.25s.06.1.09.15l.12-.22m.49-.34.27-.11c-.06,0-.11-.11-.18-.13s-.1,0-.16.07l.07.17m1.9-.69c0-.07-.07-.15-.09-.15l-.27.06s.05.13.08.13a1.45,1.45,0,0,0,.28,0m9.38-25.49.27-.11a.55.55,0,0,0-.18-.13s-.1,0-.16.06l.07.18M36.57,64.49l-.11-.26a.52.52,0,0,0-.13.17s0,.11.06.17l.18-.08M67.3,64c-.07,0-.15.08-.15.1a2,2,0,0,0,.06.26c.05,0,.13,0,.13-.07a1.67,1.67,0,0,0,0-.29M27.45,25.88c0-.07-.07-.15-.09-.15a2.61,2.61,0,0,0-.27.06c0,.05.05.13.08.13a1.45,1.45,0,0,0,.28,0M72.36,74.64l.12.23c0-.05.1-.1.1-.15a.77.77,0,0,0-.1-.25l-.12.17m-11-36.13-.11-.27a.71.71,0,0,0-.12.18s0,.11.06.16l.17-.07m-26.4-9.58-.23.12s.11.09.16.09a1.52,1.52,0,0,0,.25-.09l-.18-.12m34.41-.14a1.67,1.67,0,0,0-.29,0s0,.08-.07.13a2.44,2.44,0,0,0,.26.06s.06-.08.1-.15m-4.06,33.8c-.07,0-.16.08-.15.1a1.1,1.1,0,0,0,.06.26s.12,0,.12-.07a1,1,0,0,0,0-.29M74,75.08c-.07,0-.15.08-.15.1a1.1,1.1,0,0,0,.06.26s.12,0,.13-.07a1.67,1.67,0,0,0,0-.29M29.49,26.91l-.11-.18a.77.77,0,0,0-.1.25c0,.05.06.1.1.15l.11-.22M44.6,57.12l-.12-.18a1.52,1.52,0,0,0-.09.25c0,.05.06.11.09.16l.12-.23m-4.86,3.61c0-.07-.07-.16-.1-.15a1.22,1.22,0,0,0-.26.06s0,.12.07.12a1,1,0,0,0,.29,0m17.32-2.6.11.22c0-.05.1-.1.1-.15a.87.87,0,0,0-.1-.25l-.11.18m4.08.13L61,58.18c0,.06-.08.12-.06.17s.08.12.12.17l.11-.26m-20,2.1a1.08,1.08,0,0,0,0-.16,2.25,2.25,0,0,0-.26,0,.29.29,0,0,0,0,.13,2,2,0,0,0,.28,0m22-.39c-.07.05-.15.08-.15.1a2.61,2.61,0,0,0,.06.27c.05,0,.13-.05.13-.08a1.67,1.67,0,0,0,0-.29m-.33-.28.07.07a.33.33,0,0,0,.07-.13s0-.05-.07-.07l-.07.13M37.1,33.05,37,33a.84.84,0,0,0-.06.14s0,0,.06.07l.07-.13m2.42,28.4-.07-.07s-.05.08-.07.13,0,0,.07.07l.07-.13m23.57.06L63,61.38s-.06,0-.06.06a.84.84,0,0,0,.06.14l.08-.07m1,0L64,61.38s-.07,0-.06.06a.84.84,0,0,0,.06.14Zm.26,0,.07.07a.46.46,0,0,0,.07-.14s0,0-.07-.06l-.07.13m-25.88.24.07-.07a.42.42,0,0,0-.13-.07s0,0-.07.07l.13.07M38,32.17l-.07.06c0,.05.05.09.07.14s.06,0,.06-.07a.75.75,0,0,0-.06-.13M65.1,62.25,65,62.18a.84.84,0,0,0-.06.14s0,0,.06.06l.07-.13M45.29,56.54s-.07.05-.06.07a.75.75,0,0,0,.06.13s.07-.05.06-.06a.84.84,0,0,0-.06-.14m-8.06,5.84s-.06,0-.06.07a.52.52,0,0,0,.06.13s.07,0,.06-.06a.84.84,0,0,0-.06-.14m21-7.48.07-.07-.13-.06s0,0-.07.06l.13.07m7.86,7.71-.13.07s0,.07.06.07a.46.46,0,0,0,.14-.07ZM58.21,54.5l.07-.07a.42.42,0,0,0-.13-.07s0,0-.07.07l.13.07M32.1,25.22s-.05-.07-.07-.06a.84.84,0,0,0-.14.06s.05.07.07.06a.84.84,0,0,0,.14-.06m2,41.26L34,66.41a.84.84,0,0,0-.06.14s0,0,.06.06l.07-.13m33,1.87L67,68.22s-.06,0-.06.07a.84.84,0,0,0,.06.14Zm-13-23,.07.13s.07-.05.06-.06a.84.84,0,0,0-.06-.14l-.07.07M70.34,28.27l-.07-.13s-.07.05-.07.07a.42.42,0,0,0,.07.13l.07-.07m-3.93,4.47.13-.07s-.05-.06-.07-.06l-.13.06.07.07m-18,10.58-.07-.07a.52.52,0,0,0-.06.13s0,0,.06.07l.07-.13M28,71.37,28,71.25s-.07,0-.07.06a.46.46,0,0,0,.07.14l.07-.08M36.5,30.23l-.07-.08a.46.46,0,0,0-.07.14s0,0,.07.07l.07-.13M72.31,71.82l.07-.07-.13-.06s0,0-.07.06l.13.07m-2.07.2.13-.07s-.05-.07-.07-.06a.52.52,0,0,0-.13.06Zm.7.36-.07-.13s-.07,0-.06.07a.52.52,0,0,0,.06.13l.07-.07M34.28,28.61l-.07-.07a.84.84,0,0,0-.06.14s0,0,.06.06l.07-.13M59.46,40.15,59.39,40s-.07,0-.06.07a.84.84,0,0,0,.06.14l.07-.08m.84-.63s0-.07-.07-.06a.84.84,0,0,0-.14.06s0,.07.07.06a.84.84,0,0,0,.14-.06m-19-.27-.13.07s.05.07.07.06l.13-.06ZM29.85,28.82l-.07-.08a.84.84,0,0,0-.06.14s0,0,.06.07l.07-.13M63.65,36l.07-.08a.84.84,0,0,0-.14-.06l-.06.06.13.08m-23.33-.1-.07-.08a.84.84,0,0,0-.06.14s0,0,.06.07l.07-.13m23-.55.07.07a.75.75,0,0,0,.06-.13s0,0-.06-.07l-.07.13m1.18-1.64s0-.07-.07-.06a.84.84,0,0,0-.14.06s.05.07.07.06a.84.84,0,0,0,.14-.06m-25.82,0-.07-.07a.75.75,0,0,0-.06.13s0,0,.06.07l.07-.13m-2.46,0-.13.07s.05.07.07.06a.84.84,0,0,0,.14-.06ZM56.64,53.45l-.07-.13s-.07,0-.06.06a.84.84,0,0,0,.06.14l.07-.07"/><path class="cls-3" d="M74.4,75.59a.79.79,0,0,1,0-.16,2.44,2.44,0,0,1,.11-.55c0-.06.69.54.69.68a1.74,1.74,0,0,0,.33,1.36.36.36,0,0,1,.07.26.78.78,0,0,1-.35.1c-.12,0-.3-.1-.32-.17-.11-.55-.7-.94-.53-1.52m.64.18-.11-.26a.7.7,0,0,0-.13.17s0,.11.07.17l.17-.08"/><path class="cls-3" d="M26.46,73.44c0-.21,0-.34,0-.47s.08-.06.13-.08.06,0,.06.07,0,.29,0,.39a.58.58,0,0,0,.34.25c.06,0,.18-.24.24,0,0,.06-.11.17-.19.25a.44.44,0,0,1-.17.07c.06,0,.11.12.18.13.25,0,.24.2.14.34s-.25,0-.33,0a.85.85,0,0,1-.42-.94"/><path class="cls-3" d="M24.31,76.05a.11.11,0,0,1,0,0c0-.06,0-.14,0-.19.13-.33.62-.31.69-.71,0,0,.21,0,.25,0a1,1,0,0,1,.21.41c0,.28-.22.09-.33.15l-.75.37"/><path class="cls-3" d="M25.85,75.12s0,.08,0,.08-.11,0-.13,0a2.27,2.27,0,0,1-.41-.41c0-.07,0-.21.08-.32s.22,0,.25.07a5.89,5.89,0,0,1,.24.58"/><path class="cls-3" d="M42.17,44.46c0,.09,0,.21,0,.28s.33.26.12.47c0,0-.21-.17-.33-.25a.48.48,0,0,1-.2-.5Z"/><path class="cls-3" d="M54.05,39.42a.33.33,0,0,1,0,.1c-.23.16-.33.51-.69.5,0,0,0,0-.07-.06l.48-.56a.62.62,0,0,1,.14-.14s.1,0,.14.06a.33.33,0,0,1,0,.1"/><path class="cls-3" d="M41.76,44.46c-.44,0-.62-.29-.8-.61l.6.2Z"/><path class="cls-3" d="M63.05,57.31s-.07,0-.08,0-.31-.26-.46-.39a.14.14,0,0,1,0-.09.87.87,0,0,1,.12-.09l.49.48-.07.06"/><path class="cls-3" d="M52.09,41.76l-.53.27s-.07-.07-.11-.11c.15-.12.23-.35.49-.28,0,0,.07.06.15.12"/><path class="cls-3" d="M25.78,74.1a1.39,1.39,0,0,1-.12-.28s.05-.1.08-.15L26,74l-.24.1"/><path class="cls-3" d="M45.08,47.55a1.67,1.67,0,0,1-.28.13c-.23,0-.23-.15-.21-.31s.08-.1.08-.09l.41.27"/><path class="cls-3" d="M39.67,42.84a.89.89,0,0,1-.11-.22s.08-.09.13-.14l.26.36Z"/><path class="cls-3" d="M40.39,43l-.11.23L40,42.94s.07-.1.09-.09l.35.14"/><path class="cls-3" d="M40.86,43.87l-.28-.35a.77.77,0,0,1,.16-.07c.23,0,.23.15.21.31s-.05.06-.09.11"/><path class="cls-3" d="M72.17,70.8a1.67,1.67,0,0,1-.29,0s0-.09-.07-.13a1.22,1.22,0,0,1,.26-.06s.06.08.1.15"/><path class="cls-3" d="M73.83,73l-.11.27c0-.06-.11-.11-.12-.18s0-.11.06-.16l.17.07"/><path class="cls-3" d="M44.4,47.31l-.2-.15a1,1,0,0,1,.25-.08s.09.07.13.1l-.18.13"/><path class="cls-3" d="M63.14,57.62l.08-.07a.75.75,0,0,1,.06.13s0,0-.06.07l-.08-.13"/><path class="cls-3" d="M41.55,60.89l-.07.06-.12-.09.09-.09.1.12"/><path class="cls-3" d="M45.36,48l-.07.13s-.07,0-.06-.07a.75.75,0,0,1,.06-.13Z"/><path class="cls-3" d="M34.7,67.33s-.06.07-.07.07l-.12-.09.09-.09.1.11"/><path class="cls-3" d="M33.82,67.43s.07.06.07.07l-.09.12-.09-.09.11-.1"/><path class="cls-3" d="M31.59,69.63a.84.84,0,0,1,.06.14s0,0-.06.07a.84.84,0,0,1-.06-.14s0,0,.06-.07"/><path class="cls-3" d="M31.26,70.37l-.07.07a.84.84,0,0,1-.06-.14s0,0,.06-.06l.07.13"/><path class="cls-3" d="M57.24,43.72l-.07.13s-.06-.05-.06-.07a.75.75,0,0,1,.06-.13l.07.07"/><path class="cls-3" d="M30.86,71l-.07.07a.33.33,0,0,1-.07-.13s0,0,.07-.07l.07.13"/><path class="cls-3" d="M29,72.89l.07.07a.52.52,0,0,1-.13.06s-.05,0-.07-.06l.13-.07"/><path class="cls-3" d="M52.15,41.45l.07.06-.09.13L52,41.55l.11-.1"/><path class="cls-3" d="M79.43,44.38a.51.51,0,0,1,.06.37.21.21,0,0,1-.14.15c-.27.07-.3.1-.23.17.23.2.22.35,0,.57a1.26,1.26,0,0,0-.44,1c0,.28-.16.41-.38.5s-.32.12-.12.17c.46.13.23.25.15.52a2.8,2.8,0,0,0-.26,1.31.42.42,0,0,1-.06.37c-.58.59-.39,1.44-.72,2.12-.15.3-.08.72-.24,1a1.8,1.8,0,0,0-.19.74c0,.28.13.6-.12.85s.1.66-.41.62l.09.21A1.79,1.79,0,0,1,76,56.84a.44.44,0,0,1-.31.18c-.33,0-.41.12-.38.41a1.68,1.68,0,0,1,0,.5s-.2.13-.24.1a8.07,8.07,0,0,1-1-.74A2.35,2.35,0,0,1,73.49,56,9.53,9.53,0,0,0,73.11,55a9.47,9.47,0,0,1-.9-2.45c0-.44-.41-.83-.56-1.27-.36-1-.67-2.07-1-3.1A10.51,10.51,0,0,0,70,46.19c-.55-1-.61-2.09-1.08-3.08a1.45,1.45,0,0,1-.09-.47c0-.18,0-.35.25-.31s.59-.19.56.31a.69.69,0,0,0,.19.62,2.63,2.63,0,0,1,.31.48c.22-.2.07-.34-.08-.48.27-.27.11-.62.2-.91a.81.81,0,0,1,.46-.38.43.43,0,0,1,.4.15,4.38,4.38,0,0,0,.94,1.2c.44.39.34,1,.6,1.46,0,.11,0,.3.1.36.44.31.34.57,0,.85-.18.14-.06.29.07.41l.15.14c0-.07.08-.14.11-.22s.07-.24.1-.36c0,.12.12.24.1.35-.08.35.12.62.21.92,0,.12.2.23.18.32-.12.57.24,1.07.22,1.63l-.17.06.17.14a.49.49,0,0,0,.47.6c.16,0,.32,0,.34-.22,0-.79.41-1.53.4-2.34a3.37,3.37,0,0,1,.5-.87,3.4,3.4,0,0,0,.29-.48c.17-.29-.27-.75.32-1,.26-.09.17-.71.64-.79-.07-.54.45-.74.66-1.12l.12-.24c0,.09.05.18.09.27a.28.28,0,0,0,.12.14,1.15,1.15,0,0,0,.28.09v-.3a1.94,1.94,0,0,0,.24-.15c.15-.12.24-.23-.07-.26,0,0-.07-.1-.11-.16l.08,0c.31,0,.61.23.93,0,0,0,.11.06.15.11.32.46.73.9.59,1.54-.05.25-.26.13-.47.19,0-.08.06-.15.06-.22s-.07-.14-.11-.2l-.27.27a.93.93,0,0,0,.32.15m-7.88,3.19h.09a.76.76,0,0,0-.06-.16s-.08,0-.12,0,.06.08.37.23l-.1-.11-.09.09.12.09s0,0-.21-.18m.9.69v-.09a.67.67,0,0,0-.15.06s0,.08,0,.12a.3.3,0,0,0,.12-.18.76.76,0,0,1,.38.12l-.09-.12-.09.09.12.09s0,0-.12-.18L72.58,48a.77.77,0,0,0-.13.26m.62.27-.22.14.34.27s.07-.13.06-.16a2.27,2.27,0,0,0-.18-.25m4,1.86c-.07,0-.16.08-.15.1a1.31,1.31,0,0,0,.06.27s.12,0,.12-.08a1,1,0,0,0,0-.29m-4,.53.07.07a.42.42,0,0,0,.07-.13s0,0-.07-.07l-.07.13M75.77,49l-.06.06a.84.84,0,0,0,.06.14s.07,0,.06-.07a.52.52,0,0,0-.06-.13m-2.21-.2s-.07,0-.07.06a.46.46,0,0,0,.07.14s.06,0,.06-.07a.52.52,0,0,0-.06-.13m-1,0s-.07,0-.06.06a.84.84,0,0,0,.06.14s.07,0,.06-.07a.52.52,0,0,0-.06-.13m5.06,0,.08-.08a.84.84,0,0,0-.14-.06s0,0-.07.06l.13.08m-4.18-.51-.08-.07a.84.84,0,0,0-.06.14l.06.06.08-.13m-.61-.6-.07-.07a.52.52,0,0,0-.06.13s0,0,.06.07l.07-.13m5.64-1.15-.07-.13s-.07,0-.06.06a.59.59,0,0,0,.06.14l.07-.07m-7,0-.07-.13s-.07,0-.06.06a.59.59,0,0,0,.06.14l.07-.07m7.92-3.08.07.13s.06,0,.06-.07a.52.52,0,0,0-.06-.13l-.07.07"/><path class="cls-3" d="M21.37,43.1l-.06.07.27-.06a.69.69,0,0,0-.21,0"/><path class="cls-3" d="M25.36,58c.11-.05.28-.16.33-.14s0,.42.42,0,1.05-.37,1.39-.84a4.59,4.59,0,0,1,1.21-.73c.49-.27,1.15-.3,1.49-.76.56,0,.82-.5,1.31-.58,1.08-.18.84-.88,1.44-1.26.15-.1.06-.39.07-.43-.16-.38-.31-.59-.57-.68a3,3,0,0,0-.07-.37,11.46,11.46,0,0,1-.45-3.8c.26-1.2-.58-2.43-.42-3.89a.17.17,0,0,0-.06-.12c-.42-.25-.29-1-.48-1.44,0-.12-.09-.24-.13-.37.38-.12.54-.31.49-.5a.46.46,0,0,1-.24-.31s.11,0,.17-.08a.8.8,0,0,1,.13.24s-.05.08-.06.15c.6-.81.62-.82.42-.92s-.48-.12-.56-.24.18-.33.14-.46-.37-.4-.83-.29-.88.23-1.32.32c-.09,0-.19,0-.29-.06.36-.39,0-.34-.26-.17a1.69,1.69,0,0,1-1,.35,17.11,17.11,0,0,0-2.28.47c-.16.58-.81.34-1.23.47s-.81.11-1,.28c-.53.46-1.23.79-1.53,1.26a.24.24,0,0,1-.09.36c-.07,0-.23,0-.35,0,.06-.09.1-.19.17-.28a2.09,2.09,0,0,0-.57.23c-.81.49.24.48-.75.87-.16.07-.24.25-.36.37a1.75,1.75,0,0,0,.62,0c.72-.38,1.13.17,1.75,0,0,0,0,.1,0,.14-.28.38.21.21.28.15.28-.23.47-.5.73-.74a1.42,1.42,0,0,1,.38-.12.66.66,0,0,1,0,.23c-.14.28,0,.38.39.28s-.43.46.05.43.57-.66,1.11-.38c.38-.19.75-.38,1.14-.56a5.58,5.58,0,0,1,.69-.23c.72-.22.35,0,1.07-.21,0,.35.72.51.66.83s-.37.61.12.82c.2.09.2,1.11,0,1.19s-.15.19-.13.51c0,.56.8.12.82.4a9.75,9.75,0,0,1-.18,1,1.7,1.7,0,0,0,.09.72.89.89,0,0,1,0,.68,3.65,3.65,0,0,0,0,2.22,8.58,8.58,0,0,1,.34,1.09,12.42,12.42,0,0,0-3.79,1.57c-.36.23-.47.34-.42.55a4.2,4.2,0,0,0-.81.21c-.26.56-1.22.66-1.57,1.11-.67.85-.37,1.51-1.41,2.14m1.86-16.5-.12,0a1.08,1.08,0,0,1,.18-.11s.07,0,.11,0l-.17.12m3.11,15.21a.74.74,0,0,1-.25,0l.09-.11.24,0s-.06.1-.08.1m5-8.18a1.13,1.13,0,0,1,.13.1l-.07.12-.13-.12s0-.1.07-.1"/><path class="cls-3" d="M43.74,75.23c-.39-.26-.54-.76-.86-1.18-.11-.15,0-.46,0-.69s.35-.67-.16-.87A7.87,7.87,0,0,1,42.79,71a.75.75,0,0,0-.1-.7c-.11-.17-.06-.44.24-.14,0-.06.12-.12.13-.18,0-.3,0-.6,0-.9a.45.45,0,0,1,.49-.49c.14,0,.29.2.41.17s.23-.23.36-.33.16-.09.8.42c-.07,0-.1-.07-.14-.06a1.27,1.27,0,0,0-.26,0s0,.13,0,.13a.64.64,0,0,0,.36-.11c.19,0,.35.13.36.41.06.94.13,1.88.2,2.82a2.52,2.52,0,0,0,.06.48c.08.28.18.55.27.83-.4.3.17.48.09.77a4.76,4.76,0,0,0,0,1c0,.29-.12.35-.36.2a1.8,1.8,0,0,0-.22-.06c0,.09,0,.21,0,.27a7.55,7.55,0,0,1,.54.59s.09.39-.21.16c0,0-.09,0-.14,0,0,.42-.65.59-.45,1.12,0,.11-.07.27-.11.4-.1-.09-.25-.18-.27-.29-.14-.7-.8-1.06-1.08-1.66a1.07,1.07,0,0,1-.07-.59s-.08.12-.06.14a1.18,1.18,0,0,0,.28.2c0-.07.12-.17.1-.22s-.13-.15-.32-.12m-.5-1.33-.08-.13s-.06,0-.06.06a.84.84,0,0,0,.06.14l.08-.07"/><path class="cls-3" d="M54.13,72.39A4.93,4.93,0,0,0,53.68,70,.64.64,0,0,1,54,69a.2.2,0,0,1,.2,0c.18.23.33.47.51.69a.22.22,0,0,0,.41-.08c.11-.36.16-.74.27-1.1a.67.67,0,0,1,.33-.43.73.73,0,0,1,.52.15.44.44,0,0,1,.14.33,2.91,2.91,0,0,0,.49,1.52,1.54,1.54,0,0,1,0,1.4.36.36,0,0,0,0,.43.72.72,0,0,1,.08.46c0,.21-.19.42-.17.62s.39.06.43.41.2.24-.13.32-.2.7,0,.76c.49.13.21.26.12.52a3.94,3.94,0,0,0,0,1.09,3.35,3.35,0,0,1,0,.71.62.62,0,0,1-.35.3c-.08,0-.24-.08-.32-.17s-.33-.46-.5-.69c-.07-.08.09-.4-.21-.23s-.35.24-.15.48c.05,0,.13.1.13.14a3.55,3.55,0,0,1-.08.47c-.11-.11-.32-.24-.3-.33a1.49,1.49,0,0,0-.28-1c-.19-.29-.06-.75-.49-.91,0,0-.06-.05-.05-.07.16-.93-.69-1.71-.42-2.47m.28-.61-.07.07a.91.91,0,0,0,.14.07s0,0,.06-.07l-.13-.07"/><path class="cls-3" d="M50.33,68.93s.33,0,.37.12c.13.41.87.43.62,1-.1.27.29.52.06.81.29.28.08.64.15.95s0,.64.22.8,0,.64.26.91-.09.16-.18.22,0,.13,0,.2c0,.28-.35.56,0,.83s.4.44,0,.7c-.18.13-.23.26-.07.49a.66.66,0,0,1-.1.89c-.07.07-.08.25-.16.29a1.48,1.48,0,0,1-.71.19c-.2,0-.29-.27-.37-.52a4.14,4.14,0,0,0-.92-1.92c-.29-.29,0-.82-.44-1.07-.05,0,.06-.31.1-.47-.21,0-.28-.1-.35-.34a4.07,4.07,0,0,1,0-2.56c.09-.26.12-.55.21-.82.21-.61.41-.74,1.22-.74m1.22,4.36.07.07a.33.33,0,0,0,.07-.13s0,0-.07-.07l-.07.13"/><path class="cls-3" d="M43.74,27.91c-.39-.27-.54-.77-.86-1.19-.11-.14,0-.45,0-.69s.35-.66-.16-.86a8,8,0,0,1,.09-1.55.76.76,0,0,0-.1-.7c-.11-.17-.06-.44.24-.14,0-.06.12-.12.13-.18,0-.3,0-.6,0-.9a.46.46,0,0,1,.49-.49c.14,0,.29.2.41.17s.23-.22.36-.32.16-.1.8.42c-.07,0-.1-.07-.14-.07a1.32,1.32,0,0,0-.26.05s0,.12,0,.12a.62.62,0,0,0,.36-.1.36.36,0,0,1,.36.4c.06.94.13,1.88.2,2.83a2.42,2.42,0,0,0,.06.47c.08.28.18.56.27.83-.4.3.17.48.09.78a4.66,4.66,0,0,0,0,1c0,.29-.12.35-.36.21a.9.9,0,0,0-.22-.06c0,.09,0,.21,0,.26.17.21.39.38.54.59,0,.06.09.4-.21.16,0,0-.09,0-.14,0,0,.42-.65.6-.45,1.12,0,.11-.07.27-.11.4-.1-.09-.25-.17-.27-.28-.14-.71-.8-1.07-1.08-1.67a1,1,0,0,1-.07-.58s-.08.11-.06.13a1.21,1.21,0,0,0,.28.21c0-.08.12-.17.1-.22s-.13-.15-.32-.12m-.5-1.34-.08-.13s-.06,0-.06.07a.75.75,0,0,0,.06.13l.08-.07"/><path class="cls-3" d="M54.13,25.07a4.91,4.91,0,0,0-.45-2.41.65.65,0,0,1,.29-1s.16,0,.2,0c.18.23.33.48.51.7a.22.22,0,0,0,.41-.08c.11-.37.16-.75.27-1.1a.69.69,0,0,1,.33-.44c.14-.05.36.06.52.15a.46.46,0,0,1,.14.33,2.88,2.88,0,0,0,.49,1.52,1.54,1.54,0,0,1,0,1.4.36.36,0,0,0,0,.43.72.72,0,0,1,.08.46c0,.21-.19.42-.17.62s.39.06.43.42c0,.2.2.23-.13.32s-.2.7,0,.75c.49.13.21.27.12.52a4,4,0,0,0,0,1.1,3.27,3.27,0,0,1,0,.7.6.6,0,0,1-.35.31c-.08,0-.24-.08-.32-.17s-.33-.47-.5-.7.09-.4-.21-.23-.35.24-.15.48c.05.05.13.1.13.15a4.2,4.2,0,0,1-.08.47c-.11-.12-.32-.24-.3-.34a1.47,1.47,0,0,0-.28-1c-.19-.3-.06-.76-.49-.92,0,0-.06-.05-.05-.07.16-.93-.69-1.7-.42-2.46m.28-.62-.07.08a.84.84,0,0,0,.14.06s0,0,.06-.06l-.13-.08"/><path class="cls-3" d="M50.33,21.61s.33,0,.37.12c.13.4.87.42.62,1-.1.28.29.53.06.82.29.27.08.63.15.94s0,.64.22.8,0,.64.26.91-.09.16-.18.22,0,.13,0,.2c0,.28-.35.56,0,.83s.4.44,0,.7c-.18.13-.23.27-.07.5a.65.65,0,0,1-.1.88c-.07.07-.08.26-.16.29a1.48,1.48,0,0,1-.71.19c-.2,0-.29-.26-.37-.51a4.13,4.13,0,0,0-.92-1.93c-.29-.28,0-.81-.44-1.07-.05,0,.06-.31.1-.47-.21,0-.28-.1-.35-.34a4.07,4.07,0,0,1,0-2.56c.09-.26.12-.55.21-.82.21-.6.41-.74,1.22-.73M51.55,26l.07.08a.46.46,0,0,0,.07-.14s0,0-.07-.06l-.07.12"/></g></g></svg>